<svg width="187" height="34" viewBox="0 0 187 34" fill="none" xmlns="http://www.w3.org/2000/svg">
<path fill-rule="evenodd" clip-rule="evenodd" d="M29.3957 9.63025H14.3101C10.6617 9.63025 8.37354 12.2139 8.37354 15.8713V25.7392C8.37354 29.3967 10.6491 31.9802 14.3101 31.9802H29.3938C33.0567 31.9802 35.334 29.3967 35.334 25.7392V15.8713C35.334 12.2139 33.0567 9.63025 29.3957 9.63025Z" stroke="#087F5B" stroke-width="2.5" stroke-linecap="round" stroke-linejoin="round"/>
<path d="M14.2866 17.0675H29.4118" stroke="#087F5B" stroke-width="2.5" stroke-linecap="round" stroke-linejoin="round"/>
<path d="M28.8087 9.6264L26.1657 5.22125C24.272 2.10253 20.9965 1.05033 17.8527 2.94571L4.93806 10.7182C1.80671 12.5992 1.17613 15.9918 3.0571 19.1358L8.15948 27.5785C8.39731 27.9875 8.66036 28.355 8.96125 28.6846V28.6973" stroke="#087F5B" stroke-width="2.5" stroke-linecap="round" stroke-linejoin="round"/>
<path d="M56.0809 6.02586C56.8059 6.02586 57.4583 6.15014 58.0383 6.39871C58.639 6.62656 59.1879 6.88548 59.6851 7.17547C60.2029 7.46546 60.6897 7.73474 61.1454 7.98331C61.6011 8.21116 62.0671 8.32508 62.5436 8.32508C62.9164 8.30437 63.341 8.25258 63.8174 8.16973C64.2317 8.08687 64.7081 7.96259 65.2467 7.79688C65.806 7.61046 66.4274 7.34118 67.1109 6.98905C66.4274 7.65189 65.8681 8.21116 65.4331 8.66686C65.0188 9.10185 64.6978 9.46434 64.4699 9.75433C64.2007 10.0857 64.0039 10.3447 63.8796 10.5311C63.7553 10.7589 63.5689 11.1007 63.3203 11.5564C63.0925 11.9707 62.7818 12.53 62.3882 13.2342C61.9946 13.9178 61.4975 14.8188 60.8968 15.9374C60.8968 14.5081 60.7518 13.3999 60.4618 12.6128C60.1926 11.8257 59.8922 11.225 59.5608 10.8107C59.1672 10.3343 58.7219 10.034 58.2247 9.90968C57.769 9.84754 57.3133 9.93039 56.8576 10.1582C56.4019 10.3654 55.9462 10.6761 55.4905 11.0904C55.0556 11.5046 54.6309 12.0018 54.2166 12.5817C53.8231 13.141 53.4606 13.7314 53.1292 14.3528C52.8185 14.9742 52.5596 15.6059 52.3524 16.2481C52.1453 16.8695 52.0106 17.4495 51.9485 17.988C51.8864 18.4644 51.876 19.0237 51.9174 19.6658C51.9589 20.2872 52.0521 20.9294 52.1971 21.5922C52.3421 22.2343 52.5285 22.8661 52.7563 23.4875C52.9842 24.1089 53.2638 24.6682 53.5952 25.1653C53.9474 25.6417 54.3409 26.0353 54.7759 26.346C55.2109 26.636 55.708 26.7706 56.2673 26.7499C56.8887 26.7085 57.4998 26.5221 58.1005 26.1906C58.6183 25.9214 59.1465 25.5071 59.6851 24.9478C60.2236 24.3678 60.6897 23.5497 61.0832 22.4933L65.6817 23.3322C64.356 24.9478 63.0614 26.1596 61.7979 26.9674C60.555 27.7752 59.4365 28.3449 58.4422 28.6763C57.2823 29.0491 56.1844 29.2252 55.1488 29.2045C53.8438 29.0595 52.6217 28.6659 51.4824 28.0238C50.3432 27.3817 49.3593 26.6049 48.5307 25.6935C47.7229 24.7614 47.0911 23.7464 46.6354 22.6486C46.1797 21.5508 45.983 20.4737 46.0451 19.4173C46.0865 18.713 46.2315 17.8948 46.4801 16.9627C46.7286 16.0099 47.0601 15.0363 47.4743 14.0421C47.9093 13.0478 48.4272 12.0743 49.0279 11.1214C49.6286 10.1686 50.2914 9.31934 51.0164 8.57365C51.7414 7.80724 52.5285 7.19619 53.3777 6.74048C54.2477 6.26407 55.1488 6.02586 56.0809 6.02586ZM68.3227 16.4034C68.4262 16.2791 68.4884 16.0513 68.5091 15.7199C68.5505 15.3677 68.6334 14.9742 68.7577 14.5392C68.9027 14.1042 69.1409 13.6485 69.4723 13.1721C69.8037 12.6957 70.3423 12.2503 71.088 11.8361C71.8129 11.4218 72.5172 11.1732 73.2008 11.0904C73.8843 11.0075 74.5368 11.0386 75.1582 11.1836C75.7796 11.3286 76.3596 11.5564 76.8982 11.8671C77.4574 12.1778 77.9649 12.5196 78.4206 12.8925C78.7313 13.141 78.9799 13.5035 79.1663 13.9799C79.3527 14.4356 79.4977 14.9535 79.6013 15.5335C79.7049 16.1134 79.7774 16.7245 79.8188 17.3666C79.8809 17.988 79.9224 18.5991 79.9431 19.1998C79.9638 19.7798 79.9741 20.3183 79.9741 20.8154C79.9948 21.2919 80.0363 21.6854 80.0984 21.9961C80.1813 22.4518 80.3263 22.8454 80.5334 23.1768C80.7405 23.4875 80.9684 23.7568 81.217 23.9846C81.4655 24.1918 81.7141 24.3575 81.9627 24.4818C82.2112 24.6061 82.4287 24.6993 82.6151 24.7614C82.7394 24.8235 82.8533 24.865 82.9569 24.8857C83.164 24.9685 83.309 24.9685 83.3919 24.8857C83.2676 25.1757 83.1537 25.4242 83.0501 25.6314C82.9466 25.8385 82.8637 26.0146 82.8016 26.1596C82.7187 26.3253 82.6462 26.4599 82.5841 26.5635C82.5219 26.6878 82.4494 26.8017 82.3666 26.9053C82.3044 27.0088 82.2216 27.1228 82.118 27.247C82.0144 27.3713 81.9109 27.506 81.8073 27.651C81.538 27.5474 81.2791 27.4231 81.0305 27.2781C80.8027 27.1331 80.5955 26.9985 80.4091 26.8742C80.1813 26.7292 79.9741 26.5842 79.7877 26.4392C79.6013 26.2942 79.4252 26.1285 79.2595 25.9421C79.1145 25.7764 78.9592 25.6003 78.7935 25.4139C78.6485 25.2275 78.5242 25.0203 78.4206 24.7925C78.2963 25.0618 77.996 25.445 77.5196 25.9421C77.0639 26.4392 76.4632 26.8949 75.7175 27.3092C74.9718 27.7027 74.1018 27.9824 73.1075 28.1481C72.134 28.3138 71.0569 28.1999 69.8762 27.8063C69.3584 27.6406 68.8716 27.4024 68.4159 27.0917C67.9602 26.7603 67.5666 26.3667 67.2352 25.911C66.9245 25.4553 66.6967 24.9375 66.5517 24.3575C66.4274 23.7568 66.4377 23.094 66.5827 22.369C66.7277 21.644 66.9866 21.0329 67.3595 20.5358C67.7323 20.0387 68.1777 19.6348 68.6955 19.3241C69.2134 19.0134 69.7934 18.7751 70.4355 18.6094C71.0776 18.4437 71.7404 18.3298 72.424 18.2677C72.9625 18.2469 73.5011 18.278 74.0397 18.3609C74.4954 18.4437 74.9718 18.5991 75.4689 18.8269C75.966 19.0341 76.3907 19.3551 76.7428 19.7901C76.7221 18.6923 76.6807 17.8223 76.6185 17.1802C76.5771 16.5174 76.5357 16.0099 76.4942 15.6577C76.4114 15.2435 76.3389 14.9535 76.2767 14.7878C76.1732 14.6428 76.0592 14.4771 75.935 14.2906C75.8314 14.1042 75.6968 13.9385 75.531 13.7935C75.3653 13.6278 75.1582 13.4932 74.9096 13.3896C74.6611 13.286 74.3711 13.2446 74.0397 13.2653C73.6875 13.286 73.4079 13.3792 73.2008 13.5449C72.9936 13.7106 72.8279 13.9074 72.7036 14.1353C72.6001 14.3424 72.5379 14.5703 72.5172 14.8188C72.4965 15.0674 72.5068 15.2849 72.5483 15.4713C72.5897 15.5956 72.6518 15.7302 72.7347 15.8752C72.8176 15.9995 72.9315 16.1341 73.0765 16.2791C73.2215 16.4241 73.4182 16.5484 73.6668 16.652C73.1904 16.7141 72.7658 16.7659 72.3929 16.8073C72.0201 16.8281 71.699 16.8591 71.4297 16.9006C71.119 16.942 70.8498 16.9731 70.6219 16.9938C70.394 17.0145 70.1248 17.0559 69.8141 17.118C69.5448 17.1595 69.2134 17.2113 68.8198 17.2734C68.4262 17.3355 67.9705 17.4184 67.4527 17.522C67.577 17.377 67.6909 17.2423 67.7945 17.118C67.898 16.9731 67.9913 16.8488 68.0741 16.7452C68.157 16.6209 68.2398 16.507 68.3227 16.4034ZM72.9833 20.1008C72.6104 20.1215 72.2376 20.2147 71.8647 20.3805C71.4919 20.5255 71.1605 20.7429 70.8705 21.0329C70.5805 21.3022 70.3319 21.6233 70.1248 21.9961C69.9383 22.3483 69.8451 22.7418 69.8451 23.1768C69.8451 23.6118 69.9487 23.995 70.1558 24.3264C70.3837 24.6371 70.6737 24.896 71.0258 25.1032C71.3987 25.3103 71.7922 25.4346 72.2065 25.476C72.6415 25.5175 73.0661 25.476 73.4804 25.3517C73.874 25.2067 74.2468 24.9789 74.5989 24.6682C74.9511 24.3368 75.2514 23.9846 75.5 23.6118C75.7485 23.2182 75.9246 22.835 76.0282 22.4622C76.1317 22.0686 76.1421 21.7476 76.0592 21.499C75.8935 20.9604 75.5207 20.5876 74.9407 20.3805C74.3607 20.1526 73.7082 20.0594 72.9833 20.1008ZM82.7705 14.1042C83.164 14.1249 83.5162 14.1353 83.8269 14.1353C84.1583 14.1146 84.4379 14.0938 84.6658 14.0731C84.9351 14.0524 85.1733 14.0317 85.3804 14.011C85.6911 13.9696 86.0122 13.9178 86.3436 13.8556C86.6336 13.8142 86.9339 13.7624 87.2446 13.7003C87.5761 13.6174 87.8971 13.5242 88.2078 13.4207C88.0836 13.7314 87.98 14.0006 87.8971 14.2285C87.8143 14.4563 87.7521 14.6531 87.7107 14.8188C87.6486 15.0053 87.6175 15.1606 87.6175 15.2849C87.5968 15.4299 87.5864 15.6059 87.5864 15.8131C87.5657 16.1652 87.5657 16.7348 87.5864 17.522C88.6635 16.5898 89.5646 15.8649 90.2896 15.347C91.0353 14.8292 91.6256 14.4253 92.0606 14.1353C92.5784 13.8039 92.9823 13.5864 93.2723 13.4828C94.0387 13.3585 94.7119 13.5346 95.2919 14.011C95.5405 14.2181 95.7787 14.4978 96.0065 14.8499C96.2344 15.1813 96.4312 15.6267 96.5969 16.1859C96.7626 16.7452 96.8869 17.4184 96.9697 18.2055C97.0526 18.9719 97.0629 19.8937 97.0008 20.9708C96.5658 21.0122 96.1723 21.0537 95.8201 21.0951C95.4887 21.1365 95.2091 21.1676 94.9812 21.1883C94.7119 21.2297 94.4634 21.2504 94.2355 21.2504L93.3966 21.3436C93.1066 21.3851 92.7441 21.4265 92.3091 21.4679C91.8949 21.4886 91.3874 21.5301 90.7867 21.5922C91.6567 20.8879 92.2159 20.2769 92.4645 19.759C92.7338 19.2205 92.8477 18.7751 92.8063 18.423C92.7648 18.0295 92.5784 17.6877 92.247 17.3977C91.8534 17.1698 91.4288 17.087 90.9731 17.1491C90.5796 17.1905 90.1239 17.3666 89.606 17.6773C89.0882 17.988 88.5393 18.568 87.9593 19.4173C88.0007 20.7429 88.0421 21.8408 88.0836 22.7107C88.1457 23.5807 88.1975 24.285 88.2389 24.8235C88.301 25.445 88.3528 25.9317 88.3943 26.2839C88.4564 26.5946 88.5807 26.926 88.7671 27.2781C88.9121 27.5681 89.1192 27.8892 89.3885 28.2413C89.6578 28.5934 90.0099 28.9456 90.4449 29.2977C89.5335 29.2563 88.7878 29.2563 88.2078 29.2977C87.8557 29.3184 87.545 29.3391 87.2757 29.3598C86.9857 29.4013 86.675 29.4427 86.3436 29.4841C86.0536 29.5256 85.7118 29.567 85.3183 29.6084C84.9454 29.6706 84.5312 29.7327 84.0755 29.7948C84.2412 29.567 84.3758 29.2977 84.4794 28.987C84.5829 28.697 84.6658 28.4174 84.7279 28.1481C84.8108 27.8374 84.8729 27.5163 84.9144 27.1849C84.9351 26.8949 84.9454 26.4599 84.9454 25.8799C84.9661 25.3 84.9558 24.6475 84.9144 23.9225C84.8936 23.1768 84.8626 22.4104 84.8211 21.6233C84.7797 20.8154 84.7279 20.0594 84.6658 19.3551C84.6037 18.6509 84.5312 18.0398 84.4483 17.522C84.3862 16.9834 84.3137 16.6106 84.2308 16.4034C84.1272 16.1549 84.003 15.9063 83.858 15.6577C83.7337 15.4299 83.5783 15.1917 83.3919 14.9431C83.2055 14.6738 82.9983 14.3942 82.7705 14.1042ZM128.165 6.24335C127.875 6.90619 127.616 7.48618 127.388 7.98331C127.16 8.48043 126.963 8.90507 126.797 9.2572C126.611 9.65076 126.456 10.0029 126.331 10.3136C126.228 10.5414 126.093 10.8522 125.927 11.2457C125.762 11.5978 125.555 12.0639 125.306 12.6439C125.078 13.2032 124.778 13.9281 124.405 14.8188C124.219 14.0524 123.991 13.3792 123.721 12.7992C123.452 12.2193 123.162 11.7118 122.851 11.2768C122.541 10.8418 122.209 10.4897 121.857 10.2204C121.526 9.93039 121.194 9.69219 120.863 9.50576C120.097 9.09149 119.289 8.86364 118.439 8.82221C117.321 8.88435 116.441 9.07078 115.798 9.38148C115.177 9.67147 114.721 10.0132 114.431 10.4068C114.141 10.7797 113.986 11.1732 113.965 11.5875C113.945 11.9811 113.996 12.3125 114.121 12.5817C114.224 12.8303 114.587 13.1203 115.208 13.4517C115.85 13.7831 116.617 14.1663 117.507 14.6013C118.419 15.0156 119.392 15.492 120.428 16.0306C121.464 16.5484 122.417 17.1284 123.286 17.7705C124.177 18.3919 124.923 19.0755 125.524 19.8212C126.145 20.5462 126.487 21.3229 126.549 22.1515C126.611 23.2079 126.601 24.1607 126.518 25.01C126.435 25.8592 126.145 26.5842 125.648 27.1849C125.151 27.7856 124.374 28.262 123.318 28.6142C122.282 28.9663 120.842 29.1838 118.999 29.2666C117.093 29.3495 115.529 29.2459 114.307 28.9559C113.085 28.6659 112.091 28.2724 111.324 27.7752C110.579 27.2781 110.019 26.7292 109.647 26.1285C109.294 25.5278 109.035 24.9582 108.87 24.4196C108.704 23.8604 108.59 23.3839 108.528 22.9904C108.466 22.5761 108.362 22.3275 108.217 22.2447C108.052 22.1411 107.886 22.0479 107.72 21.9651C107.575 21.8822 107.42 21.8097 107.254 21.7476C107.088 21.6647 106.923 21.5922 106.757 21.5301L115.798 20.0698C115.281 20.484 114.877 20.8672 114.587 21.2194C114.317 21.5715 114.11 21.8822 113.965 22.1515C113.8 22.4622 113.686 22.7522 113.624 23.0215C113.582 23.3114 113.675 23.6739 113.903 24.1089C114.131 24.5439 114.442 24.9685 114.835 25.3828C115.25 25.7764 115.726 26.1078 116.265 26.3771C116.803 26.6464 117.362 26.7603 117.942 26.7188C118.667 26.6567 119.258 26.4806 119.713 26.1906C120.169 25.8799 120.511 25.4967 120.739 25.041C120.987 24.5853 121.132 24.0882 121.174 23.5497C121.215 23.0111 121.163 22.4829 121.018 21.9651C120.894 21.4265 120.687 20.9294 120.397 20.4737C120.107 19.9973 119.765 19.6037 119.372 19.293C119.019 19.0444 118.471 18.8062 117.725 18.5784C117 18.3505 116.182 18.1019 115.27 17.8327C114.38 17.5634 113.458 17.2527 112.505 16.9006C111.573 16.5484 110.724 16.1134 109.957 15.5956C109.212 15.0777 108.611 14.4667 108.155 13.7624C107.72 13.0582 107.554 12.2089 107.658 11.2146C107.741 10.3654 108.01 9.66112 108.466 9.10185C108.942 8.52186 109.533 8.06616 110.237 7.73474C110.962 7.38261 111.759 7.12369 112.629 6.95798C113.52 6.79227 114.421 6.69906 115.332 6.67834C116.265 6.63692 117.176 6.64727 118.067 6.70941C118.978 6.77155 119.796 6.84405 120.521 6.92691C121.246 7.00976 121.857 7.09262 122.354 7.17547C122.872 7.23761 123.193 7.27904 123.318 7.29975C123.856 7.34118 124.395 7.33082 124.933 7.26868C125.41 7.22726 125.927 7.13404 126.487 6.98905C127.067 6.82334 127.626 6.57477 128.165 6.24335ZM128.32 5.43552C128.796 5.51838 129.231 5.58052 129.625 5.62194C130.018 5.64266 130.35 5.66337 130.619 5.68408C130.93 5.7048 131.199 5.71516 131.427 5.71516C131.738 5.69444 132.1 5.66337 132.514 5.62194C132.867 5.58052 133.291 5.52873 133.788 5.46659C134.306 5.40445 134.897 5.3216 135.559 5.21803C135.249 5.38374 134.99 5.54945 134.783 5.71516C134.575 5.86015 134.41 6.0155 134.285 6.18121C134.14 6.36764 134.027 6.5437 133.944 6.70941C133.84 6.97869 133.726 7.53796 133.602 8.38722C133.478 9.1122 133.322 10.1893 133.136 11.6186C132.97 13.0478 132.753 14.9845 132.483 17.4288C133.229 16.6831 133.933 16.1238 134.596 15.7509C135.28 15.3574 135.88 15.0777 136.398 14.912C136.999 14.7256 137.558 14.6324 138.076 14.6324C138.718 14.6945 139.371 14.9017 140.034 15.2538C140.717 15.5852 141.349 15.9788 141.929 16.4345C142.53 16.8902 143.047 17.377 143.482 17.8948C143.938 18.4127 144.259 18.8684 144.446 19.2619C144.57 19.5312 144.632 19.8833 144.632 20.3183C144.632 20.7326 144.591 21.1883 144.508 21.6854C144.425 22.1825 144.311 22.69 144.166 23.2079C144.021 23.7257 143.876 24.2125 143.731 24.6682C143.607 25.1239 143.493 25.5278 143.389 25.8799C143.286 26.2114 143.223 26.4496 143.203 26.5946C143.161 26.9053 143.182 27.2056 143.265 27.4956C143.327 27.7442 143.451 28.0135 143.638 28.3034C143.824 28.5727 144.104 28.8006 144.477 28.987C144.187 28.9456 143.876 28.9145 143.544 28.8938C143.234 28.8524 142.933 28.8213 142.643 28.8006C142.312 28.7799 141.981 28.7695 141.649 28.7695H140.531C140.179 28.7695 139.775 28.7799 139.319 28.8006C138.863 28.8006 138.366 28.8109 137.828 28.8316C138.117 28.7281 138.366 28.5934 138.573 28.4277C138.78 28.2413 138.956 28.0652 139.101 27.8995C139.267 27.7131 139.412 27.5163 139.536 27.3092C139.619 27.1435 139.723 26.8328 139.847 26.3771C139.971 25.9007 140.085 25.3621 140.189 24.7614C140.292 24.14 140.365 23.4875 140.406 22.804C140.469 22.1204 140.479 21.4679 140.437 20.8465C140.417 20.2044 140.324 19.6348 140.158 19.1376C140.013 18.6405 139.785 18.278 139.474 18.0502C138.542 17.3459 137.693 17.0041 136.926 17.0248C136.181 17.0248 135.466 17.3252 134.783 17.9259C134.534 18.1537 134.296 18.3816 134.068 18.6094C133.861 18.8166 133.633 19.0651 133.384 19.3551C133.136 19.6244 132.908 19.904 132.701 20.194C132.701 20.5047 132.711 20.8465 132.732 21.2194C132.753 21.5922 132.773 21.9547 132.794 22.3068C132.815 22.7004 132.846 23.094 132.887 23.4875C132.929 24.0882 132.991 24.6785 133.074 25.2585C133.136 25.7557 133.219 26.3046 133.322 26.9053C133.426 27.4853 133.56 28.0135 133.726 28.4899C133.457 28.4484 133.177 28.4381 132.887 28.4588C132.597 28.4588 132.318 28.4588 132.048 28.4588C131.738 28.4795 131.437 28.4899 131.147 28.4899C130.878 28.5106 130.598 28.5417 130.308 28.5831C130.06 28.6245 129.791 28.6659 129.501 28.7074C129.211 28.7281 128.931 28.7695 128.662 28.8316C128.91 28.3552 129.117 27.8892 129.283 27.4335C129.449 26.9571 129.583 26.5428 129.687 26.1906C129.811 25.7764 129.915 25.3725 129.998 24.9789C130.06 24.6682 130.101 24.0779 130.122 23.2079C130.163 22.3172 130.195 21.3022 130.215 20.163C130.236 19.003 130.246 17.7809 130.246 16.4966C130.246 15.2124 130.236 13.9903 130.215 12.8303C130.195 11.6703 130.153 10.6554 130.091 9.7854C130.05 8.91542 129.998 8.31473 129.936 7.98331C129.853 7.65189 129.739 7.32047 129.594 6.98905C129.47 6.69906 129.304 6.41942 129.097 6.15014C128.89 5.86015 128.631 5.62194 128.32 5.43552ZM154.512 15.0674C155.051 15.0674 155.61 15.171 156.19 15.3781C156.77 15.5645 157.329 15.8131 157.868 16.1238C158.407 16.4138 158.893 16.7348 159.328 17.087C159.784 17.4184 160.157 17.7395 160.447 18.0502C160.965 18.6094 161.317 19.3655 161.503 20.3183C161.71 21.2504 161.752 22.2136 161.628 23.2079C161.503 24.1814 161.213 25.1032 160.758 25.9732C160.302 26.8431 159.67 27.4853 158.862 27.8995C158.282 28.1895 157.713 28.4174 157.153 28.5831C156.594 28.7488 156.056 28.8731 155.538 28.9559C155.02 29.0388 154.533 29.0802 154.077 29.0802C153.622 29.0802 153.228 29.0699 152.897 29.0491C152.275 29.0077 151.623 28.7902 150.939 28.3967C150.276 28.0031 149.645 27.5163 149.044 26.9363C148.464 26.3564 147.967 25.7246 147.553 25.041C147.138 24.3368 146.89 23.6739 146.807 23.0525C146.683 22.2033 146.662 21.3126 146.745 20.3805C146.828 19.4483 147.128 18.5887 147.646 17.8016C148.184 17.0145 148.992 16.362 150.069 15.8442C151.167 15.3263 152.648 15.0674 154.512 15.0674ZM153.487 27.1228C153.715 27.1642 154.026 27.1124 154.419 26.9674C154.813 26.8017 155.196 26.5428 155.569 26.1906C155.962 25.8385 156.304 25.3932 156.594 24.8546C156.905 24.2953 157.091 23.6222 157.153 22.835C157.216 22.0686 157.216 21.3644 157.153 20.7222C157.112 20.0801 157.019 19.5208 156.874 19.0444C156.729 18.5473 156.563 18.1434 156.377 17.8327C156.19 17.522 155.993 17.3045 155.786 17.1802C155.434 16.9938 155.01 16.8488 154.512 16.7452C154.015 16.6209 153.591 16.6416 153.238 16.8073C153.073 16.8902 152.866 17.0663 152.617 17.3355C152.369 17.6048 152.12 17.9466 151.871 18.3609C151.623 18.7544 151.395 19.2101 151.188 19.728C151.001 20.2458 150.867 20.7844 150.784 21.3436C150.701 21.9029 150.68 22.5036 150.722 23.1457C150.784 23.7879 150.919 24.3989 151.126 24.9789C151.333 25.5382 151.623 26.0249 151.996 26.4392C152.389 26.8328 152.886 27.0606 153.487 27.1228ZM161.224 14.6635C161.845 14.7049 162.394 14.736 162.87 14.7567C163.368 14.7774 163.782 14.7981 164.113 14.8188C164.486 14.8395 164.817 14.8499 165.107 14.8499C165.397 14.8499 165.729 14.8395 166.102 14.8188C166.433 14.7981 166.837 14.767 167.313 14.7256C167.811 14.6635 168.38 14.5806 169.022 14.4771C168.525 14.7878 168.121 15.0777 167.811 15.347C167.521 15.5956 167.293 15.8234 167.127 16.0306C166.941 16.2584 166.816 16.4656 166.754 16.652C166.713 16.8177 166.671 17.1491 166.63 17.6462C166.609 18.1227 166.588 18.6819 166.568 19.3241C166.568 19.9455 166.578 20.6083 166.599 21.3126C166.62 22.0168 166.651 22.659 166.692 23.2389C166.733 23.7982 166.796 24.2746 166.878 24.6682C166.961 25.041 167.065 25.2171 167.189 25.1964C167.355 25.0514 167.624 24.5646 167.997 23.7361C168.142 23.3839 168.318 22.9386 168.525 22.4C168.732 21.8408 168.971 21.1676 169.24 20.3805C169.509 19.5726 169.809 18.6301 170.141 17.553C170.493 16.4759 170.887 15.2227 171.322 13.7935H174.025C174.108 15.202 174.201 16.4345 174.304 17.4909C174.408 18.5473 174.511 19.4691 174.615 20.2562C174.719 21.0226 174.812 21.6751 174.895 22.2136C174.998 22.7315 175.102 23.1561 175.205 23.4875C175.433 24.2746 175.661 24.6993 175.889 24.7614C176.075 24.72 176.272 24.4818 176.479 24.0468C176.707 23.6118 176.914 23.0732 177.101 22.4311C177.308 21.789 177.494 21.0951 177.66 20.3494C177.826 19.583 177.971 18.8684 178.095 18.2055C178.219 17.5427 178.302 16.9627 178.344 16.4656C178.385 15.9684 178.385 15.6577 178.344 15.5335C178.281 15.4092 178.157 15.2331 177.971 15.0053C177.805 14.8188 177.577 14.591 177.287 14.3217C177.018 14.0524 176.645 13.7314 176.169 13.3585C176.749 13.4621 177.297 13.5346 177.815 13.576C178.354 13.5967 178.83 13.6174 179.245 13.6381C179.721 13.6589 180.156 13.6589 180.55 13.6381C180.964 13.6381 181.471 13.6278 182.072 13.6071C182.59 13.5864 183.232 13.576 183.998 13.576C184.785 13.576 185.707 13.5553 186.764 13.5139C185.832 13.8039 185.086 14.0835 184.527 14.3528C183.988 14.6013 183.574 14.8395 183.284 15.0674C182.932 15.316 182.683 15.5542 182.538 15.782C182.393 16.0927 182.165 16.7452 181.854 17.7395C181.73 18.1537 181.575 18.6716 181.388 19.293C181.202 19.8937 180.985 20.6083 180.736 21.4369C180.487 22.2654 180.208 23.2286 179.897 24.3264C179.586 25.4035 179.234 26.636 178.841 28.0238C178.613 27.9824 178.375 27.9617 178.126 27.9617C177.898 27.941 177.681 27.9306 177.474 27.9306H176.759C176.51 27.9513 176.241 27.972 175.951 27.9927C175.703 28.0135 175.413 28.0445 175.081 28.086C174.75 28.1274 174.387 28.1792 173.994 28.2413L172.129 20.6912L169.084 28.2413L165.605 28.1481C165.17 25.8074 164.817 23.9432 164.548 22.5554C164.3 21.1469 164.092 20.0698 163.927 19.3241C163.74 18.4541 163.616 17.843 163.554 17.4909C163.45 17.118 163.295 16.7556 163.088 16.4034C162.922 16.1134 162.684 15.8131 162.373 15.5024C162.063 15.171 161.679 14.8913 161.224 14.6635Z" fill="black"/>
</svg>
